<?xml version="1.0" standalone="no"?>
<!DOCTYPE svg PUBLIC "-//W3C//DTD SVG 20010904//EN"
 "http://www.w3.org/TR/2001/REC-SVG-20010904/DTD/svg10.dtd">
<svg version="1.0" xmlns="http://www.w3.org/2000/svg"
 width="500.000000pt" height="500.000000pt" viewBox="0 0 500.000000 500.000000"
 preserveAspectRatio="xMidYMid meet">
<metadata>
Created by potrace 1.14, written by Peter Selinger 2001-2017
</metadata>
<g transform="translate(0.000000,500.000000) scale(0.100000,-0.100000)"
fill="#000000" stroke="none">
<path d="M0 2500 l0 -2500 2500 0 2500 0 0 2500 0 2500 -2500 0 -2500 0 0
-2500z m3019 43 c118 -357 224 -681 237 -720 l22 -73 -211 0 -212 0 -35 133
-35 132 -232 3 -232 2 -10 -37 c-6 -21 -21 -80 -35 -132 -14 -51 -27 -95 -29
-97 -2 -3 -98 -3 -214 -2 l-210 3 233 715 c128 393 233 716 234 718 0 1 116 2
258 2 l258 0 213 -647z m-2214 622 c275 -52 412 -275 350 -570 -30 -142 -106
-245 -224 -304 -79 -40 -159 -58 -298 -67 l-113 -7 0 -233 0 -234 -195 0 -195
0 0 715 0 715 299 0 c221 0 319 -4 376 -15z m3595 -545 l0 -560 275 0 275 0 0
-155 0 -155 -470 0 -470 0 0 715 0 715 195 0 195 0 0 -560z m-2760 -542 c54
-27 85 -72 94 -132 13 -86 -31 -173 -102 -203 -50 -21 -152 -18 -205 5 -64 28
-91 72 -95 153 -8 134 56 196 203 198 44 1 73 -5 105 -21z m2053 -7 c74 -45
101 -173 54 -256 -32 -57 -90 -86 -171 -87 -85 0 -127 15 -170 62 -80 89 -53
233 54 288 38 20 56 23 121 19 56 -2 85 -9 112 -26z"/>
<path d="M2530 2853 c-7 -38 -39 -168 -70 -290 l-57 -223 148 0 c82 0 149 3
149 7 0 4 -27 108 -59 232 -33 124 -65 252 -72 284 -7 31 -15 57 -19 57 -3 0
-12 -30 -20 -67z"/>
<path d="M520 2704 l0 -167 69 5 c79 6 125 28 157 75 41 62 38 161 -7 209 -28
30 -77 44 -156 44 l-63 0 0 -166z"/>
</g>
</svg>
